<?xml version="1.0" encoding="UTF-8"?>
<svg id="Layer_1" data-name="Layer 1" xmlns="http://www.w3.org/2000/svg" viewBox="0 0 1897.89 512">
  <defs>
    <style>
      .cls-1 {
        fill: #444;
      }

      .cls-2 {
        fill: #2592ff;
      }

      .cls-2, .cls-3 {
        fill-rule: evenodd;
      }

      .cls-3 {
        fill: #fff;
      }

      .cls-4 {
        isolation: isolate;
      }
    </style>
  </defs>
  <path class="cls-2" d="M362.8,512H149.2C66.8,512,0,445.2,0,362.8V149.2C0,66.8,66.8,0,149.2,0h213.6c82.4,0,149.2,66.8,149.2,149.2v213.6c0,82.4-66.8,149.2-149.2,149.2Z"/>
  <path class="cls-3" d="M322,119.7h0c-12.4-4-33.5-5.7-33.5-5.7l-53.4-.6h-70V398.6h70v-98l62.2,.7h0c1.6,.1,3.2,.1,4.9,.1,48.9,0,88.5-41.2,88.5-92.1,0-43.6-29.3-80.3-68.7-89.6Zm-86.9,29.6h0Zm50.4,95.9h-51.1v-82.4h51.1c20,.7,35.9,18.9,35.9,41.2s-15.9,40.5-35.9,41.2Z"/>
  <g class="cls-4">
    <path class="cls-1" d="M672.88,160.95c24.8,0,43.86,4.71,57.2,14.14,13.33,9.43,20,23.48,20,42.17,0,10.19-1.83,18.9-5.48,26.12-3.65,7.22-8.92,13.08-15.8,17.58-6.88,4.5-15.25,7.77-25.1,9.81-9.85,2.04-20.98,3.06-33.38,3.06h-19.62v65.48h-24.71V165.28c6.96-1.7,14.73-2.84,23.31-3.44,8.58-.59,16.43-.89,23.57-.89Zm2.04,21.66c-10.53,0-18.6,.25-24.2,.76v69.3h18.6c8.49,0,16.14-.55,22.93-1.66,6.79-1.1,12.52-2.97,17.2-5.61,4.67-2.63,8.28-6.24,10.83-10.83,2.55-4.59,3.82-10.45,3.82-17.58s-1.32-12.4-3.95-16.82c-2.64-4.42-6.2-7.94-10.7-10.57-4.5-2.63-9.73-4.46-15.67-5.48-5.95-1.02-12.23-1.53-18.85-1.53Z"/>
    <path class="cls-1" d="M817.34,203.5c9.51,0,17.54,1.23,24.08,3.69,6.54,2.46,11.8,5.95,15.8,10.45,3.99,4.5,6.84,9.85,8.54,16.05,1.7,6.2,2.55,13.04,2.55,20.51v82.81c-2.04,.34-4.88,.81-8.54,1.4-3.65,.6-7.77,1.15-12.36,1.66-4.59,.51-9.55,.97-14.91,1.4-5.35,.42-10.66,.64-15.92,.64-7.48,0-14.36-.76-20.64-2.29-6.29-1.53-11.72-3.95-16.31-7.26-4.59-3.31-8.15-7.68-10.7-13.12-2.55-5.43-3.82-11.98-3.82-19.62s1.48-13.59,4.46-18.85c2.97-5.26,7.01-9.51,12.1-12.74,5.1-3.22,11.04-5.61,17.84-7.13,6.79-1.53,13.93-2.29,21.4-2.29,2.38,0,4.84,.13,7.39,.38s4.97,.6,7.26,1.02c2.29,.43,4.29,.81,5.99,1.15,1.7,.34,2.89,.6,3.57,.76v-6.62c0-3.91-.43-7.77-1.27-11.59-.85-3.82-2.38-7.22-4.59-10.19-2.21-2.97-5.22-5.35-9.04-7.13-3.82-1.78-8.79-2.67-14.91-2.67-7.81,0-14.65,.55-20.51,1.66-5.86,1.11-10.24,2.25-13.12,3.44l-2.8-19.62c3.06-1.36,8.15-2.67,15.29-3.95,7.13-1.27,14.86-1.91,23.19-1.91Zm2.04,118.73c5.6,0,10.57-.13,14.9-.38,4.33-.25,7.94-.72,10.83-1.4v-39.49c-1.7-.85-4.46-1.57-8.28-2.17-3.82-.59-8.45-.89-13.89-.89-3.57,0-7.35,.25-11.34,.76-3.99,.51-7.64,1.57-10.96,3.18-3.31,1.62-6.08,3.82-8.28,6.62-2.21,2.8-3.31,6.5-3.31,11.08,0,8.5,2.71,14.4,8.15,17.71,5.43,3.31,12.82,4.97,22.17,4.97Z"/>
    <path class="cls-1" d="M929.7,206.81h50.19v19.87h-50.19v61.15c0,6.62,.51,12.1,1.53,16.43,1.02,4.33,2.55,7.73,4.59,10.19,2.04,2.46,4.59,4.2,7.64,5.22,3.06,1.02,6.62,1.53,10.7,1.53,7.13,0,12.87-.8,17.2-2.42,4.33-1.61,7.35-2.76,9.05-3.44l4.59,19.62c-2.38,1.19-6.54,2.67-12.48,4.46-5.95,1.78-12.74,2.68-20.38,2.68-9.01,0-16.43-1.15-22.29-3.44-5.86-2.29-10.57-5.73-14.14-10.32-3.57-4.59-6.07-10.23-7.52-16.94-1.45-6.71-2.17-14.48-2.17-23.31v-118.22l23.7-4.08v41.02Z"/>
    <path class="cls-1" d="M1009.96,339.3V145.66l23.7-4.08v67.77c4.42-1.7,9.13-3.01,14.14-3.95,5.01-.93,9.98-1.4,14.91-1.4,10.53,0,19.28,1.49,26.24,4.46,6.96,2.97,12.53,7.13,16.69,12.48,4.16,5.35,7.09,11.76,8.79,19.24,1.7,7.48,2.55,15.71,2.55,24.71v74.4h-23.7v-69.3c0-8.15-.55-15.12-1.66-20.89-1.11-5.77-2.93-10.45-5.48-14.01-2.55-3.57-5.95-6.15-10.19-7.77-4.25-1.61-9.51-2.42-15.8-2.42-2.55,0-5.18,.17-7.9,.51-2.72,.34-5.31,.72-7.77,1.15-2.46,.43-4.67,.89-6.62,1.4-1.96,.51-3.36,.94-4.21,1.27v110.07h-23.7Z"/>
    <path class="cls-1" d="M1260.42,339.3c-4.76-12.23-9.81-26.2-15.16-41.91-5.35-15.71-10.23-32.06-14.65-49.05-4.42,16.99-9.26,33.34-14.52,49.05-5.27,15.71-10.28,29.68-15.03,41.91h-20.64c-7.81-17.49-15.46-37.45-22.93-59.88-7.48-22.42-14.52-46.63-21.15-72.62h25.48c1.7,7.99,3.73,16.65,6.12,25.99,2.38,9.34,4.88,18.69,7.52,28.03,2.63,9.34,5.39,18.34,8.28,27.01,2.89,8.66,5.61,16.22,8.15,22.68,2.89-7.98,5.73-16.43,8.54-25.35s5.48-17.92,8.03-27.01c2.55-9.08,4.97-18,7.26-26.75,2.29-8.75,4.29-16.94,5.99-24.59h19.62c1.53,7.64,3.4,15.84,5.61,24.59,2.21,8.75,4.59,17.67,7.13,26.75,2.55,9.09,5.22,18.09,8.03,27.01s5.65,17.37,8.54,25.35c2.55-6.45,5.22-14.01,8.03-22.68,2.8-8.66,5.56-17.66,8.28-27.01,2.71-9.34,5.26-18.68,7.64-28.03,2.38-9.34,4.41-18,6.11-25.99h24.46c-6.62,25.99-13.67,50.19-21.15,72.62-7.48,22.42-15.12,42.38-22.93,59.88h-20.64Z"/>
    <path class="cls-1" d="M1392.9,203.5c9.51,0,17.54,1.23,24.08,3.69,6.54,2.46,11.8,5.95,15.8,10.45,3.99,4.5,6.84,9.85,8.54,16.05,1.7,6.2,2.55,13.04,2.55,20.51v82.81c-2.04,.34-4.88,.81-8.54,1.4-3.65,.6-7.77,1.15-12.36,1.66-4.59,.51-9.55,.97-14.91,1.4-5.35,.42-10.66,.64-15.92,.64-7.48,0-14.36-.76-20.64-2.29-6.29-1.53-11.72-3.95-16.31-7.26-4.59-3.31-8.15-7.68-10.7-13.12-2.55-5.43-3.82-11.98-3.82-19.62s1.48-13.59,4.46-18.85c2.97-5.26,7.01-9.51,12.1-12.74,5.1-3.22,11.04-5.61,17.84-7.13,6.79-1.53,13.93-2.29,21.4-2.29,2.38,0,4.84,.13,7.39,.38,2.55,.25,4.97,.6,7.26,1.02,2.29,.43,4.29,.81,5.99,1.15,1.7,.34,2.89,.6,3.57,.76v-6.62c0-3.91-.43-7.77-1.27-11.59-.85-3.82-2.38-7.22-4.59-10.19-2.21-2.97-5.22-5.35-9.04-7.13s-8.79-2.67-14.9-2.67c-7.82,0-14.65,.55-20.51,1.66-5.86,1.11-10.23,2.25-13.12,3.44l-2.8-19.62c3.06-1.36,8.15-2.67,15.29-3.95,7.13-1.27,14.86-1.91,23.19-1.91Zm2.04,118.73c5.61,0,10.57-.13,14.9-.38,4.33-.25,7.94-.72,10.83-1.4v-39.49c-1.7-.85-4.46-1.57-8.28-2.17-3.82-.59-8.45-.89-13.89-.89-3.57,0-7.35,.25-11.34,.76-3.99,.51-7.64,1.57-10.96,3.18-3.31,1.62-6.08,3.82-8.28,6.62-2.21,2.8-3.31,6.5-3.31,11.08,0,8.5,2.71,14.4,8.15,17.71,5.43,3.31,12.82,4.97,22.17,4.97Z"/>
    <path class="cls-1" d="M1463.73,364.02c1.87,.85,4.29,1.66,7.26,2.42,2.97,.76,5.9,1.15,8.79,1.15,9.34,0,16.64-2.08,21.91-6.24,5.26-4.16,10.02-10.92,14.27-20.26-10.7-20.38-20.68-42-29.94-64.84-9.26-22.84-16.94-45.99-23.06-69.43h25.48c1.87,7.64,4.12,15.88,6.75,24.71,2.63,8.83,5.56,17.92,8.79,27.26,3.22,9.34,6.71,18.69,10.45,28.03,3.73,9.34,7.64,18.34,11.72,27.01,6.45-17.84,12.06-35.5,16.82-53,4.75-17.49,9.26-35.5,13.5-54.02h24.46c-6.12,24.97-12.91,48.96-20.38,71.98-7.48,23.02-15.54,44.55-24.21,64.59-3.4,7.64-6.92,14.22-10.57,19.75-3.65,5.52-7.69,10.06-12.1,13.63-4.42,3.57-9.39,6.2-14.9,7.9-5.52,1.7-11.76,2.55-18.73,2.55-1.87,0-3.82-.13-5.86-.38-2.04-.25-4.04-.6-5.99-1.02-1.95-.43-3.74-.89-5.35-1.4-1.62-.51-2.76-.94-3.44-1.27l4.33-19.11Z"/>
    <path class="cls-1" d="M1673.17,343.12c-11.55,0-21.57-1.78-30.06-5.35-8.5-3.57-15.46-8.45-20.89-14.65-5.44-6.2-9.47-13.54-12.1-22.04-2.63-8.49-3.95-17.66-3.95-27.52v-110.83h24.71v108.03c0,17.67,3.91,30.49,11.72,38.47,7.81,7.99,18,11.98,30.57,11.98,6.28,0,12.02-.98,17.2-2.93,5.18-1.95,9.64-4.97,13.38-9.04,3.73-4.08,6.62-9.3,8.66-15.67,2.04-6.37,3.06-13.97,3.06-22.8v-108.03h24.71v110.83c0,9.85-1.32,19.03-3.95,27.52-2.63,8.5-6.71,15.84-12.23,22.04-5.52,6.2-12.48,11.08-20.89,14.65-8.41,3.57-18.39,5.35-29.94,5.35Z"/>
    <path class="cls-1" d="M1897.89,273.31c0,10.02-1.32,19.28-3.95,27.77-2.63,8.5-6.5,15.8-11.59,21.91s-11.34,10.87-18.73,14.27c-7.39,3.4-15.84,5.1-25.35,5.1-7.64,0-14.4-1.02-20.26-3.06-5.86-2.04-10.24-3.99-13.12-5.86v53h-23.7V210.89c5.61-1.36,12.61-2.84,21.02-4.46,8.41-1.61,18.13-2.42,29.17-2.42,10.19,0,19.37,1.62,27.52,4.84,8.15,3.23,15.12,7.82,20.89,13.76,5.77,5.95,10.23,13.21,13.38,21.78,3.14,8.58,4.71,18.22,4.71,28.92Zm-24.71,0c0-15.46-3.82-27.35-11.47-35.67-7.64-8.32-17.83-12.48-30.57-12.48-7.13,0-12.7,.25-16.69,.76-3.99,.51-7.18,1.11-9.55,1.78v83.57c2.89,2.38,7.05,4.67,12.49,6.88,5.43,2.21,11.38,3.31,17.83,3.31,6.79,0,12.61-1.23,17.45-3.69,4.84-2.46,8.79-5.86,11.85-10.19,3.06-4.33,5.26-9.43,6.62-15.29,1.36-5.86,2.04-12.19,2.04-18.98Z"/>
  </g>
</svg>
