<?xml version="1.0" encoding="utf-8"?>
<!-- Generator: Adobe Illustrator 27.0.0, SVG Export Plug-In . SVG Version: 6.00 Build 0)  -->
<svg version="1.1" id="Layer_1" xmlns="http://www.w3.org/2000/svg" xmlns:xlink="http://www.w3.org/1999/xlink" x="0px" y="0px"
	 viewBox="0 0 512 512" style="enable-background:new 0 0 512 512;" xml:space="preserve">
<style type="text/css">
	.st0{fill-rule:evenodd;clip-rule:evenodd;fill:#2592FF;}
	.st1{fill-rule:evenodd;clip-rule:evenodd;fill:#FFFFFF;}
	.st2{display:none;}
</style>
<path class="st0" d="M362.8,512H149.2C66.8,512,0,445.2,0,362.8V149.2C0,66.8,66.8,0,149.2,0h213.6C445.2,0,512,66.8,512,149.2
	v213.6C512,445.2,445.2,512,362.8,512z"/>
<path class="st1" d="M322,119.7L322,119.7c-12.4-4-33.5-5.7-33.5-5.7l-53.4-0.6h-70v285.2h70v-98l62.2,0.7l0,0
	c1.6,0.1,3.2,0.1,4.9,0.1c48.9,0,88.5-41.2,88.5-92.1C390.7,165.7,361.4,129,322,119.7z M235.1,149.3L235.1,149.3
	C235.1,149.3,235.1,149.3,235.1,149.3L235.1,149.3z M285.5,245.2L285.5,245.2l-51.1,0v-82.4h51.1v0c20,0.7,35.9,18.9,35.9,41.2
	S305.5,244.5,285.5,245.2z"/>
<g class="st2">
</g>
</svg>
